<svg width="15" height="14" viewBox="0 0 15 14" fill="none" xmlns="http://www.w3.org/2000/svg">
<path fill-rule="evenodd" clip-rule="evenodd" d="M9.16227 3.79167V7.875C9.16227 8.03906 9.03467 8.16667 8.87061 8.16667H5.95394C5.78988 8.16667 5.66227 8.03906 5.66227 7.875V7.29167C5.66227 7.1276 5.78988 7 5.95394 7H7.99561V3.79167C7.99561 3.6276 8.12321 3.5 8.28727 3.5H8.87061C9.03467 3.5 9.16227 3.6276 9.16227 3.79167ZM12.9539 7C12.9539 4.26562 10.73 2.04167 7.99561 2.04167C5.26123 2.04167 3.03727 4.26562 3.03727 7C3.03727 9.73438 5.26123 11.9583 7.99561 11.9583C10.73 11.9583 12.9539 9.73438 12.9539 7ZM14.9956 7C14.9956 10.8646 11.8602 14 7.99561 14C4.13102 14 0.995605 10.8646 0.995605 7C0.995605 3.13542 4.13102 0 7.99561 0C11.8602 0 14.9956 3.13542 14.9956 7Z" fill="#7A8395" fill-opacity="0.5"/>
</svg>
