<svg width="12" height="14" viewBox="0 0 12 14" fill="none" xmlns="http://www.w3.org/2000/svg">
<path fill-rule="evenodd" clip-rule="evenodd" d="M5.99561 0.5C5.99561 0.226562 5.76904 0 5.49561 0C5.22217 0 4.99561 0.226562 4.99561 0.5V3.75C4.99561 4.02344 4.76904 4.25 4.49561 4.25C4.22217 4.25 3.99561 4.02344 3.99561 3.75V0.5C3.99561 0.226562 3.76904 0 3.49561 0C3.22217 0 2.99561 0.226562 2.99561 0.5V3.75C2.99561 4.02344 2.76904 4.25 2.49561 4.25C2.22217 4.25 1.99561 4.02344 1.99561 3.75V0.5C1.99561 0.226562 1.76904 0 1.49561 0C1.22217 0 0.995605 0.226562 0.995605 0.5V5.5C0.995605 6.13281 1.40186 6.70312 1.99561 6.91406V13C1.99561 13.5469 2.44873 14 2.99561 14H3.99561C4.54248 14 4.99561 13.5469 4.99561 13V6.91406C5.58936 6.70312 5.99561 6.13281 5.99561 5.5V0.5ZM11.9956 0.5C11.9956 0.226562 11.769 0 11.4956 0H9.49561C8.12061 0 6.99561 1.125 6.99561 2.5V8.75C6.99561 8.88281 7.11279 9 7.24561 9H8.99561V13C8.99561 13.5469 9.44873 14 9.99561 14H10.9956C11.5425 14 11.9956 13.5469 11.9956 13V0.5Z" fill="#7A8395" fill-opacity="0.5"/>
</svg>
