<svg width="15" height="11" viewBox="0 0 15 11" fill="none" xmlns="http://www.w3.org/2000/svg">
<path fill-rule="evenodd" clip-rule="evenodd" d="M8.99561 10H13.9956V9H8.99561V10ZM5.99561 6H13.9956V5H5.99561V6ZM10.9956 2H13.9956V1H10.9956V2ZM14.9956 8.5V10.5C14.9956 10.7734 14.769 11 14.4956 11H1.49561C1.22217 11 0.995605 10.7734 0.995605 10.5V8.5C0.995605 8.22656 1.22217 8 1.49561 8H14.4956C14.769 8 14.9956 8.22656 14.9956 8.5ZM14.9956 4.5V6.5C14.9956 6.77344 14.769 7 14.4956 7H1.49561C1.22217 7 0.995605 6.77344 0.995605 6.5V4.5C0.995605 4.22656 1.22217 4 1.49561 4H14.4956C14.769 4 14.9956 4.22656 14.9956 4.5ZM14.9956 0.5V2.5C14.9956 2.77344 14.769 3 14.4956 3H1.49561C1.22217 3 0.995605 2.77344 0.995605 2.5V0.5C0.995605 0.226562 1.22217 0 1.49561 0H14.4956C14.769 0 14.9956 0.226562 14.9956 0.5Z" fill="#7A8395" fill-opacity="0.5"/>
</svg>
