<?xml version="1.0" encoding="UTF-8" standalone="no"?>
<svg
   xmlns:dc="http://purl.org/dc/elements/1.1/"
   xmlns:cc="http://creativecommons.org/ns#"
   xmlns:rdf="http://www.w3.org/1999/02/22-rdf-syntax-ns#"
   xmlns:svg="http://www.w3.org/2000/svg"
   xmlns="http://www.w3.org/2000/svg"
   xmlns:sodipodi="http://sodipodi.sourceforge.net/DTD/sodipodi-0.dtd"
   xmlns:inkscape="http://www.inkscape.org/namespaces/inkscape"
   width="160"
   height="160"
   viewBox="0 0 160 160"
   fill="none"
   version="1.1"
   id="svg37"
   sodipodi:docname="kuokko.svg"
   inkscape:version="0.92.2 2405546, 2018-03-11">
  <metadata
     id="metadata41">
    <rdf:RDF>
      <cc:Work
         rdf:about="">
        <dc:format>image/svg+xml</dc:format>
        <dc:type
           rdf:resource="http://purl.org/dc/dcmitype/StillImage" />
        <dc:title></dc:title>
      </cc:Work>
    </rdf:RDF>
  </metadata>
  <sodipodi:namedview
     pagecolor="#ffffff"
     bordercolor="#666666"
     borderopacity="1"
     objecttolerance="10"
     gridtolerance="10"
     guidetolerance="10"
     inkscape:pageopacity="0"
     inkscape:pageshadow="2"
     inkscape:window-width="1920"
     inkscape:window-height="976"
     id="namedview39"
     showgrid="false"
     inkscape:zoom="2.085965"
     inkscape:cx="67.574707"
     inkscape:cy="66.605646"
     inkscape:window-x="1080"
     inkscape:window-y="289"
     inkscape:window-maximized="1"
     inkscape:current-layer="svg37" />
  <g
     id="g9537"
     transform="matrix(1.0184491,0,0,1.0184491,-1.4799999,-1.4759273)">
    <path
       style="fill:#3a3f47;stroke-width:3.0908699"
       inkscape:connector-curvature="0"
       id="path14"
       d="m 158.04032,114.08081 c -3.05687,20.95548 -28.37759,10.91417 -36.0176,-6.54894 -3.92911,-10.914167 -15.71677,-38.200367 -36.235815,-27.285887 -2.401297,1.309911 -4.147639,3.492683 -5.675456,6.112196 -1.246857,-2.484132 -3.129815,-4.593033 -5.45724,-6.112196 -20.737264,-10.91448 -32.3067,16.37172 -36.454029,27.285887 -7.640322,17.2449 -32.7434405,27.50442 -35.7993836,6.54894 -3.4926831,35.58117 62.2121036,21.82865 77.7106526,-3.27447 15.934981,25.10312 81.421551,38.85564 77.928871,3.27447 z" />
    <path
       style="fill:#3a3f47;stroke-width:3.0908699"
       inkscape:connector-curvature="0"
       id="path16"
       d="m 53.043774,57.980592 c 9.28281,0 16.808151,-7.525341 16.808151,-16.808151 0,-9.282809 -7.525341,-16.808151 -16.808151,-16.808151 -9.28281,0 -16.808151,7.525342 -16.808151,16.808151 0,9.28281 7.525341,16.808151 16.808151,16.808151 z" />
    <path
       style="fill:#3a3f47;stroke-width:3.0908699"
       inkscape:connector-curvature="0"
       id="path18"
       d="m 105.43247,57.762377 c 9.16258,0 16.58994,-7.42767 16.58994,-16.589936 0,-9.162265 -7.42736,-16.589935 -16.58994,-16.589935 -9.162261,0 -16.589622,7.42767 -16.589622,16.589935 0,9.162266 7.427361,16.589936 16.589622,16.589936 z" />
  </g>
  <defs
     id="defs35">
    <filter
       id="filter0_d"
       x="21"
       y="21"
       width="122"
       height="122"
       filterUnits="userSpaceOnUse"
       color-interpolation-filters="sRGB">
      <feFlood
         flood-opacity="0"
         result="BackgroundImageFix"
         id="feFlood20" />
      <feColorMatrix
         in="SourceAlpha"
         type="matrix"
         values="0 0 0 0 0 0 0 0 0 0 0 0 0 0 0 0 0 0 127 0"
         id="feColorMatrix22" />
      <feOffset
         dx="2"
         dy="2"
         id="feOffset24" />
      <feGaussianBlur
         stdDeviation="5"
         id="feGaussianBlur26" />
      <feColorMatrix
         type="matrix"
         values="0 0 0 0 0 0 0 0 0 0 0 0 0 0 0 0 0 0 0.25 0"
         id="feColorMatrix28" />
      <feBlend
         mode="normal"
         in2="BackgroundImageFix"
         result="effect1_dropShadow"
         id="feBlend30" />
      <feBlend
         mode="normal"
         in="SourceGraphic"
         in2="effect1_dropShadow"
         result="shape"
         id="feBlend32" />
    </filter>
  </defs>
</svg>
