<svg width="102" height="102" viewBox="0 0 102 102" fill="none" xmlns="http://www.w3.org/2000/svg">
<path d="M76.398 62.0263C75.4092 68.8061 67.2169 65.5574 64.7451 59.9075C63.4739 56.3764 59.6602 47.5484 53.0216 51.0796C52.2447 51.5034 51.6797 52.2096 51.1854 53.0571C50.782 52.2534 50.1728 51.5711 49.4198 51.0796C42.7106 47.5484 38.9675 56.3764 37.6257 59.9075C35.1538 65.4868 27.0321 68.8061 26.0434 62.0263C24.9134 73.5379 46.1711 69.0886 51.1854 60.9669C56.3409 69.0886 77.5279 73.5379 76.398 62.0263Z" fill="#3A3F47"/>
<path d="M42.438 43.876C45.4413 43.876 47.876 41.4413 47.876 38.438C47.876 35.4347 45.4413 33 42.438 33C39.4347 33 37 35.4347 37 38.438C37 41.4413 39.4347 43.876 42.438 43.876Z" fill="#3A3F47"/>
<path d="M59.3776 43.8054C62.342 43.8054 64.745 41.4023 64.745 38.438C64.745 35.4737 62.342 33.0706 59.3776 33.0706C56.4133 33.0706 54.0103 35.4737 54.0103 38.438C54.0103 41.4023 56.4133 43.8054 59.3776 43.8054Z" fill="#3A3F47"/>
</svg>
