<svg width="102" height="102" viewBox="0 0 102 102" fill="none" xmlns="http://www.w3.org/2000/svg">
<path d="M79.398 63.0263C78.4092 69.8061 70.2169 66.5574 67.7451 60.9075C66.4739 57.3764 62.6602 48.5484 56.0216 52.0796C55.2447 52.5034 54.6797 53.2096 54.1854 54.0571C53.782 53.2534 53.1728 52.5711 52.4198 52.0796C45.7106 48.5484 41.9675 57.3764 40.6257 60.9075C38.1538 66.4868 30.0321 69.8061 29.0434 63.0263C27.9134 74.5379 49.1711 70.0886 54.1854 61.9669C59.3409 70.0886 80.5279 74.5379 79.398 63.0263Z" fill="#3A3F47"/>
<path d="M54 69.07C55.6569 69.07 57 68.1746 57 67.07C57 65.9654 55.6569 65.07 54 65.07C52.3431 65.07 51 65.9654 51 67.07C51 68.1746 52.3431 69.07 54 69.07Z" fill="#3A3F47"/>
<path d="M40 41L45 41H50C50.0391 41 50.5734 41.0121 50.8575 41.4855C51.1416 41.9591 50.9881 42.5734 50.5145 42.8575L50.5125 42.8587L50.5097 42.8604L50.5012 42.8654L50.4734 42.8816C50.4502 42.8951 50.4176 42.9138 50.3763 42.937C50.2936 42.9832 50.1758 43.0475 50.0276 43.1237C49.732 43.2757 49.3124 43.4771 48.8089 43.6785C47.817 44.0752 46.4314 44.5 45 44.5C43.5685 44.5 42.1829 44.0752 41.1911 43.6785C40.6876 43.4771 40.268 43.2757 39.9723 43.1237C39.8242 43.0475 39.7063 42.9832 39.6237 42.937C39.5823 42.9138 39.5498 42.8951 39.5265 42.8816L39.4988 42.8654L39.4903 42.8604L39.4874 42.8587L39.4863 42.858C39.0128 42.5739 38.8583 41.9591 39.1425 41.4855C39.4264 41.0123 40 41 40 41Z" fill="#3A3F47"/>
<path d="M57.9999 41L62.9999 41H67.9999C68.039 41 68.5733 41.0121 68.8574 41.4855C69.1416 41.9591 68.988 42.5734 68.5144 42.8575L68.5125 42.8587L68.5096 42.8604L68.5011 42.8654L68.4734 42.8816C68.4501 42.8951 68.4176 42.9138 68.3762 42.937C68.2936 42.9832 68.1757 43.0475 68.0276 43.1237C67.7319 43.2757 67.3123 43.4771 66.8088 43.6785C65.817 44.0752 64.4314 44.5 62.9999 44.5C61.5685 44.5 60.1829 44.0752 59.191 43.6785C58.6875 43.4771 58.2679 43.2757 57.9723 43.1237C57.8241 43.0475 57.7063 42.9832 57.6236 42.937C57.5823 42.9138 57.5497 42.8951 57.5265 42.8816L57.4987 42.8654L57.4902 42.8604L57.4874 42.8587L57.4863 42.858C57.0127 42.5739 56.8583 41.9591 57.1424 41.4855C57.4264 41.0123 57.9999 41 57.9999 41Z" fill="#3A3F47"/>
</svg>
