<svg width="102" height="102" viewBox="0 0 102 102" fill="none" xmlns="http://www.w3.org/2000/svg">
<path d="M82.398 67.0263C81.4092 73.8061 73.2169 70.5574 70.7451 64.9075C69.4739 61.3764 65.6602 52.5484 59.0216 56.0796C58.2447 56.5034 57.6797 57.2096 57.1854 58.0571C56.782 57.2534 56.1728 56.5711 55.4198 56.0796C48.7106 52.5484 44.9675 61.3764 43.6257 64.9075C41.1538 70.4868 33.0321 73.8061 32.0434 67.0263C30.9134 78.5379 52.1711 74.0886 57.1854 65.9669C62.3409 74.0886 83.5279 78.5379 82.398 67.0263Z" fill="#3A3F47"/>
<path d="M57 74.0706C58.6569 74.0706 60 72.7275 60 71.0706C60 69.4138 58.6569 68.0706 57 68.0706C55.3431 68.0706 54 69.4138 54 71.0706C54 72.7275 55.3431 74.0706 57 74.0706Z" fill="#3A3F47"/>
<path d="M43 46C43 46 45.5 47.5 48 47.5C50.5 47.5 53 46 53 46" stroke="#3A3F47" stroke-width="2" stroke-linecap="round"/>
<path d="M61 46C61 46 63.5 47.5 66 47.5C68.5 47.5 71 46 71 46" stroke="#3A3F47" stroke-width="2" stroke-linecap="round"/>
</svg>
